<?xml version="1.0" standalone="no"?>
<!DOCTYPE svg PUBLIC "-//W3C//DTD SVG 20010904//EN"
 "http://www.w3.org/TR/2001/REC-SVG-20010904/DTD/svg10.dtd">
<svg version="1.0" xmlns="http://www.w3.org/2000/svg"
 width="544.000000pt" height="367.000000pt" viewBox="0 0 544.000000 367.000000"
 preserveAspectRatio="xMidYMid meet">

<g transform="translate(0.000000,367.000000) scale(0.100000,-0.100000)"
fill="#000000" stroke="none">
<path d="M1670 3423 c-162 -166 -307 -351 -296 -380 3 -7 1 -12 -5 -10 -6 1
-15 -8 -19 -19 -8 -21 -7 -21 20 -8 27 14 30 13 59 -17 23 -23 30 -37 25 -52
-5 -16 -3 -19 11 -13 24 9 39 -3 24 -20 -7 -8 -7 -14 -1 -14 5 0 15 6 21 14 9
11 8 18 -6 32 -17 17 -17 17 0 11 9 -3 17 -2 17 3 0 6 4 10 8 10 5 0 9 -7 9
-15 0 -8 -5 -11 -10 -8 -6 3 -7 1 -3 -6 17 -27 212 175 257 266 26 52 29 116
12 271 l-8 73 -115 -118z m-236 -379 c3 -8 2 -12 -4 -9 -6 3 -10 10 -10 16 0
14 7 11 14 -7z"/>
<path d="M2317 3438 c-64 -65 -110 -133 -138 -207 -28 -73 -28 -176 1 -301 60
-260 25 -491 -94 -618 -66 -71 -180 -121 -281 -123 -76 -1 0 -19 109 -25 371
-22 603 209 665 661 13 93 23 376 11 315 -4 -25 -13 -56 -18 -70 -9 -22 -11
-23 -11 -5 -1 12 -6 26 -13 33 -9 9 -8 12 5 12 11 0 14 5 10 15 -3 9 -8 13
-11 11 -3 -3 -18 8 -34 24 -16 17 -33 28 -37 25 -5 -3 -7 4 -4 15 5 20 -24 77
-34 66 -3 -3 -7 -20 -9 -37 -2 -18 -6 -35 -10 -38 -8 -8 -25 22 -19 36 2 6 1
13 -3 15 -4 2 -14 17 -23 33 -11 22 -22 30 -41 30 -15 -1 -24 3 -22 7 3 5 -2
15 -10 24 -15 14 -17 14 -32 0 -15 -15 -34 -21 -34 -11 0 3 8 13 18 23 18 18
36 22 48 10 11 -11 34 -10 34 2 0 5 -6 7 -14 4 -8 -3 -17 0 -21 5 -3 6 -11 8
-17 5 -6 -4 -8 -1 -6 7 3 8 11 13 17 11 7 -1 9 3 5 9 -4 6 12 27 37 50 24 21
41 38 37 39 -5 0 -32 -24 -61 -52z m-87 -143 c-7 -8 -10 -24 -7 -34 5 -19 -19
-38 -31 -26 -3 3 0 5 6 5 7 0 12 9 12 19 0 27 10 51 22 51 6 0 5 -6 -2 -15z
m50 -5 c0 -5 -4 -10 -10 -10 -5 0 -10 5 -10 10 0 6 5 10 10 10 6 0 10 -4 10
-10z m50 -30 c0 -5 -2 -10 -4 -10 -3 0 -8 5 -11 10 -3 6 -1 10 4 10 6 0 11 -4
11 -10z m247 -317 c-3 -10 -5 -2 -5 17 0 19 2 27 5 18 2 -10 2 -26 0 -35z"/>
<path d="M2065 3294 c-22 -20 -103 -82 -180 -137 -315 -229 -460 -389 -510
-561 -27 -94 -18 -216 23 -299 36 -73 96 -133 167 -166 25 -12 46 -21 48 -21
2 0 -12 17 -32 38 -60 63 -75 142 -45 243 38 130 127 233 297 343 156 101 201
156 252 311 28 82 48 285 29 285 -5 -1 -27 -17 -49 -36z"/>
<path d="M1031 3215 c-40 -68 -65 -196 -65 -335 0 -192 40 -315 135 -415 51
-54 140 -107 204 -121 28 -6 27 -5 -13 23 -111 76 -135 186 -87 407 52 239 26
341 -107 423 -14 9 -30 25 -35 36 -8 18 -11 17 -32 -18z"/>
<path d="M2591 3204 c0 -11 3 -14 6 -6 3 7 2 16 -1 19 -3 4 -6 -2 -5 -13z"/>
<path d="M1466 2865 c-3 -9 -11 -13 -17 -9 -8 5 -9 3 -4 -5 6 -10 11 -9 23 3
9 8 13 18 10 21 -3 3 -8 -1 -12 -10z"/>
<path d="M2902 2794 c-126 -33 -232 -128 -358 -317 -114 -171 -198 -256 -298
-302 -87 -41 -196 -59 -301 -51 l-70 5 45 -15 c142 -47 351 -53 506 -14 264
66 450 207 601 455 50 80 51 85 28 79 -25 -6 -36 10 -12 19 8 3 5 14 -12 37
-23 32 -23 33 -3 28 15 -4 19 -2 15 8 -3 8 -11 14 -19 14 -13 0 -16 4 -18 33
-1 6 -8 15 -16 20 -8 4 -1 5 18 2 17 -2 32 0 32 5 0 14 -76 11 -138 -6z m75
-20 c-3 -3 -12 -4 -19 -1 -8 3 -5 6 6 6 11 1 17 -2 13 -5z m17 -236 c-9 -14
-23 2 -17 18 4 12 8 13 14 3 4 -7 5 -17 3 -21z m-94 -142 c0 -2 -8 -10 -17
-17 -16 -13 -17 -12 -4 4 13 16 21 21 21 13z"/>
<path d="M3059 2698 c-1 -2 -2 -15 -3 -30 -1 -16 2 -24 9 -20 5 4 13 7 17 7 3
0 10 4 15 9 5 5 3 6 -4 2 -7 -4 -13 -2 -13 4 0 6 -5 8 -12 4 -8 -5 -9 -2 -5 9
5 13 1 25 -4 15z"/>
<path d="M130 2483 c-19 -4 -5 -11 60 -32 169 -54 306 -146 434 -289 229 -257
390 -645 463 -1122 21 -137 25 -546 6 -620 -7 -24 -10 -46 -9 -48 2 -2 17 21
34 50 69 122 119 321 129 517 5 105 10 127 51 236 127 341 301 684 434 856
l28 37 -46 4 -46 3 -82 -125 c-88 -134 -226 -371 -297 -510 l-43 -85 -8 85
c-27 311 -157 617 -339 799 -167 166 -347 239 -604 246 -77 2 -151 1 -165 -2z"/>
<path d="M1738 1845 c-56 -30 -68 -49 -68 -109 0 -55 11 -58 80 -22 35 17 48
31 58 61 16 48 12 89 -8 92 -8 1 -36 -9 -62 -22z"/>
<path d="M2709 1763 c-18 -27 -61 -80 -96 -119 -35 -39 -63 -76 -63 -83 0 -6
10 -11 23 -11 44 0 45 -4 49 -250 3 -199 6 -240 21 -267 26 -48 54 -63 119
-63 88 0 190 55 175 94 -5 13 -11 13 -52 0 -53 -19 -90 -12 -106 18 -17 31
-26 417 -10 446 10 19 20 22 71 22 50 0 61 4 74 22 13 18 23 68 14 68 -2 0
-21 -7 -43 -15 -22 -8 -55 -14 -73 -15 -41 0 -54 28 -51 115 3 105 -4 109 -52
38z"/>
<path d="M1710 1614 c-41 -18 -87 -34 -101 -34 -26 0 -45 -23 -34 -40 3 -5 18
-11 34 -15 16 -3 35 -12 41 -20 8 -9 10 -78 8 -224 l-3 -210 -34 -35 c-18 -19
-31 -38 -28 -43 3 -4 72 -8 154 -7 121 0 148 3 151 15 1 8 -11 22 -28 32 -64
38 -65 44 -68 344 -2 150 -7 273 -10 272 -4 0 -41 -16 -82 -35z"/>
<path d="M3165 1628 c-22 -12 -67 -29 -100 -38 -47 -13 -61 -22 -63 -38 -3
-18 2 -22 22 -22 60 0 70 -41 64 -268 -4 -173 -10 -201 -51 -233 -11 -9 -18
-23 -15 -30 4 -11 38 -14 159 -14 132 0 154 3 157 16 2 10 -12 22 -39 34 -62
29 -69 53 -69 253 0 159 1 171 23 203 29 43 79 58 136 40 78 -23 100 -92 101
-317 0 -118 -10 -153 -51 -183 -51 -38 -28 -47 133 -46 126 0 143 2 146 17 2
11 -10 24 -37 37 -22 12 -43 26 -48 33 -4 7 -10 101 -13 208 -5 168 -9 201
-27 240 -33 73 -73 103 -141 108 -67 5 -106 -9 -174 -61 l-47 -36 -3 56 c-2
31 -7 58 -13 59 -5 2 -28 -7 -50 -18z"/>
<path d="M4491 1623 c-30 -14 -75 -31 -100 -38 -35 -8 -47 -16 -49 -33 -3 -18
2 -22 22 -22 13 0 31 -7 39 -15 21 -20 31 -139 25 -294 -5 -129 -13 -163 -51
-192 -11 -9 -18 -23 -15 -30 8 -21 302 -19 306 2 1 8 -14 23 -35 34 -60 32
-64 47 -61 258 l3 189 33 29 c39 35 77 37 123 6 56 -38 63 -62 67 -258 l4
-176 -32 -36 c-17 -20 -30 -42 -28 -49 6 -18 276 -18 283 0 7 19 0 27 -34 42
-48 19 -56 55 -56 240 0 183 9 221 56 245 38 20 68 19 105 -4 52 -32 64 -73
71 -244 3 -85 3 -166 -1 -182 -4 -15 -21 -41 -38 -57 -51 -47 -37 -53 123 -53
136 1 144 2 144 20 0 11 -11 25 -26 32 -60 29 -62 36 -69 256 -5 190 -7 205
-30 247 -34 61 -80 90 -142 90 -59 0 -107 -23 -167 -81 -25 -23 -46 -38 -48
-33 -2 5 -12 24 -23 42 -58 95 -196 97 -285 2 l-30 -32 -5 58 c-3 32 -9 59
-15 60 -5 1 -34 -9 -64 -23z"/>
<path d="M3902 1615 c-80 -25 -142 -90 -142 -149 0 -34 30 -49 67 -35 48 18
63 38 63 85 0 49 17 64 72 64 78 0 120 -58 122 -168 l1 -55 -80 -22 c-44 -12
-96 -28 -116 -37 -49 -22 -109 -76 -125 -115 -29 -69 -7 -165 45 -196 58 -34
167 -14 256 46 l39 26 22 -33 c36 -52 70 -59 142 -26 29 13 42 25 42 40 0 14
-6 20 -23 20 -55 0 -58 10 -63 215 -6 236 -8 247 -45 290 -52 59 -177 82 -277
50z m188 -405 c0 -93 -2 -103 -24 -125 -50 -50 -144 -37 -167 23 -13 34 -2 95
23 127 28 36 101 72 151 74 15 1 17 -10 17 -99z"/>
<path d="M2105 1597 c-116 -57 -183 -193 -173 -351 8 -118 64 -206 158 -250
36 -17 65 -21 140 -21 83 0 102 3 150 27 64 31 130 88 130 112 0 24 -24 20
-97 -19 -145 -77 -271 -20 -325 147 -32 98 -37 96 203 100 221 3 224 4 213 68
-21 121 -124 200 -269 207 -69 4 -87 1 -130 -20z m175 -39 c55 -38 86 -118 60
-158 -13 -20 -233 -29 -256 -9 -17 14 -11 75 12 121 35 68 120 89 184 46z"/>
<path d="M998 799 c-19 -46 -58 -154 -87 -240 l-52 -156 52 -139 c28 -77 53
-140 54 -142 2 -2 8 23 15 55 6 32 29 130 51 218 42 173 47 243 28 382 -16
115 -21 117 -61 22z"/>
<path d="M1745 840 c-37 -8 -144 -45 -150 -52 -4 -4 -8 -31 -6 -46 1 -9 11 -5
32 12 17 14 43 29 57 32 15 3 41 10 57 14 17 5 52 12 79 16 55 8 55 8 1 -61
-132 -168 -209 -370 -159 -419 16 -17 33 -21 35 -8 1 4 3 24 4 44 10 102 120
349 179 397 9 7 16 22 16 33 0 17 5 19 48 12 26 -3 60 -14 75 -23 25 -14 29
-14 37 -1 12 18 12 22 2 37 -10 16 -250 26 -307 13z"/>
<path d="M2726 774 c-27 -27 -99 -155 -117 -208 -15 -42 -28 -58 -81 -98 -39
-30 -73 -48 -90 -48 -40 0 -34 20 18 60 86 66 93 83 35 88 -42 4 -78 -20 -98
-66 -18 -39 -61 -92 -75 -92 -4 0 -8 14 -8 31 0 37 -16 69 -35 69 -7 0 -27
-13 -43 -30 -37 -37 -42 -37 -42 -2 0 16 -6 37 -14 47 -13 19 -15 18 -56 -9
-41 -27 -42 -27 -47 -6 -8 29 -34 19 -107 -42 -40 -33 -62 -46 -69 -39 -7 7
-7 19 1 36 16 34 15 70 -2 84 -23 19 -124 -65 -103 -86 3 -3 13 2 22 11 9 9
26 21 37 27 19 10 20 9 14 -12 -16 -56 -17 -85 -3 -103 14 -19 15 -19 45 0 17
10 54 39 81 62 54 46 65 41 30 -14 -16 -27 -18 -37 -9 -54 11 -20 15 -17 66
49 31 39 60 71 65 71 5 0 9 -20 9 -44 0 -89 21 -98 69 -31 36 50 51 50 51 0 0
-18 7 -41 16 -49 17 -17 34 -21 34 -8 0 5 14 19 31 31 28 21 33 22 41 7 12
-21 76 -21 108 1 14 9 37 27 52 41 29 27 30 26 42 -30 12 -52 56 -57 101 -12
15 15 17 15 31 -5 35 -49 114 -17 210 85 29 30 55 54 58 54 12 0 6 -52 -10
-81 -11 -22 -21 -30 -34 -26 -11 3 -27 -1 -37 -8 -15 -11 -15 -15 -4 -29 30
-36 106 -3 193 84 32 32 59 53 59 47 4 -32 -2 -62 -16 -83 -12 -19 -21 -23
-40 -18 -31 8 -45 -20 -22 -43 20 -21 61 -10 93 24 18 20 24 37 24 73 0 83
-39 151 -56 97 -6 -21 -92 -117 -104 -117 -3 0 -5 17 -5 38 0 46 -23 102 -41
102 -8 0 -14 -7 -14 -15 0 -40 -165 -175 -214 -175 -41 0 -30 21 35 69 70 50
75 74 16 79 -31 3 -42 -2 -67 -30 -17 -18 -30 -37 -30 -43 0 -16 -71 -86 -84
-82 -17 6 -20 77 -3 77 17 0 93 132 124 217 18 50 21 69 12 79 -15 18 -24 18
-43 -2z m18 -66 c-8 -28 -83 -156 -95 -164 -15 -9 -10 15 12 59 50 99 102 165
83 105z m-279 -193 c-37 -30 -49 -31 -35 -4 11 19 50 41 60 32 2 -2 -9 -15
-25 -28z m337 -6 c-19 -17 -36 -28 -38 -26 -9 9 8 35 29 45 39 19 43 12 9 -19z"/>
<path d="M3515 757 c-17 -12 -41 -31 -53 -42 -31 -26 -100 -173 -114 -239 -10
-47 -9 -58 9 -92 32 -63 92 -59 163 11 25 24 48 44 52 45 4 0 2 -14 -4 -31 -8
-23 -7 -33 2 -42 9 -9 16 -6 28 13 23 35 103 110 118 110 9 0 14 -20 16 -57 3
-67 23 -80 64 -42 l25 23 5 -21 c3 -12 13 -24 21 -28 17 -6 27 0 91 53 l40 32
10 -30 c7 -18 18 -30 29 -30 9 0 46 28 80 62 34 34 65 59 69 55 3 -3 1 -28 -6
-56 -14 -59 -3 -87 37 -97 24 -6 34 0 90 62 64 71 91 81 53 20 -20 -33 -21
-76 -1 -76 4 0 26 26 49 58 23 31 51 63 62 70 19 12 20 10 20 -36 0 -26 6 -56
13 -66 12 -17 16 -14 48 28 19 25 37 46 40 46 3 0 10 -19 15 -41 15 -69 32
-70 104 -8 34 29 66 62 72 72 20 38 -3 29 -56 -21 -30 -29 -59 -52 -64 -52 -5
0 -13 20 -16 44 -9 58 -28 64 -75 21 l-39 -35 -6 45 c-4 24 -12 47 -17 51 -6
3 -28 -6 -49 -20 -46 -30 -50 -31 -50 -11 0 33 -43 12 -104 -50 -35 -36 -71
-65 -80 -65 -21 0 -21 34 1 71 16 27 16 31 0 64 -9 19 -22 35 -29 35 -7 0 -45
-33 -85 -72 -64 -63 -73 -69 -73 -48 0 13 5 38 12 57 14 38 5 52 -22 35 -17
-10 -20 -10 -20 3 0 37 -95 3 -138 -48 -10 -12 -33 -35 -51 -52 l-34 -30 5 50
c3 28 4 56 1 63 -10 25 -58 12 -102 -29 -24 -22 -45 -39 -47 -37 -5 6 44 108
61 124 36 36 72 158 54 181 -22 26 -21 27 -120 -196 -31 -70 -161 -193 -199
-189 -47 6 -37 95 27 234 40 88 129 174 149 143 11 -18 -8 -70 -42 -115 -32
-41 -37 -64 -14 -64 15 0 68 101 75 142 8 46 -6 68 -44 68 -14 -1 -40 -11 -56
-23z m462 -264 c4 -12 -91 -93 -108 -93 -15 0 -10 33 9 57 19 24 72 55 86 50
6 -2 11 -8 13 -14z"/>
<path d="M1900 618 c0 -7 5 -20 10 -28 12 -19 35 2 27 24 -7 19 -37 21 -37 4z"/>
</g>
</svg>
